# xmcd
#
# Track frame offsets: 
#        150
#        28571
#        51198
#        75437
#        93344
#        114565
#        138724
#        158592
#        184111
#        202552
#        221699
#        246136
#
# Disc length: 3461 seconds
#
# Revision: 2
# Processed by: cddbd v1.5.2PL0 Copyright (c) Steve Scherf et al.
# Submitted via: ExactAudioCopy v0.99pb4
#
DISCID=960d830c
DTITLE=Llewellyn and Juliana - Earth Angel
DYEAR=2004
DGENRE=New Age
TTITLE0=Earth Angel
TTITLE1=In My Dreams
TTITLE2=Star Angel
TTITLE3=Girl With No Name
TTITLE4=Ghost
TTITLE5=Just For Today
TTITLE6=She Moved Through the Fair
TTITLE7=Flying
TTITLE8=Home Take Me Home
TTITLE9=Swimming with Dolphins
TTITLE10=Life Inside of Me
TTITLE11=Angel Prayer
EXTD=YEAR: 2004
EXTT0=
EXTT1=
EXTT2=
EXTT3=
EXTT4=
EXTT5=
EXTT6=
EXTT7=
EXTT8=
EXTT9=
EXTT10=
EXTT11=
PLAYORDER=
